<?xml version="1.0" standalone="no"?><!DOCTYPE svg PUBLIC "-//W3C//DTD SVG 1.1//EN" "http://www.w3.org/Graphics/SVG/1.1/DTD/svg11.dtd"><svg t="1697945916210" class="icon" viewBox="0 0 1024 1024" version="1.1" xmlns="http://www.w3.org/2000/svg" p-id="5605" xmlns:xlink="http://www.w3.org/1999/xlink" width="200" height="200"><path d="M411.8272 148.864h316.1856c0.04096 0.99328 0.09216 1.98656 0.19456 2.97472-21.97504 0.0768-43.93472 0.14848-65.90976 0.21504l-84.52096 0.00512c-8.85248-0.02048-17.72032 0.14336-26.56768-0.09216-27.87328-0.74752-53.67296-0.52224-78.12096 19.85024-26.0352 21.69344-58.7264 35.18464-86.63552 54.90688-60.71296 42.92608-125.38368 79.6416-186.88 121.32864-15.41632 10.44992-30.79168 23.42912-50.7136 26.20928V292.864c3.3024-2.58048 2.75456-6.43072 3.4048-9.95328 14.1568-76.90752 87.21408-135.17824 159.08864-131.28704 27.96544 1.51552 56.08448 0.32256 84.13184 0.17408 5.54496-0.03072 11.55072 1.61792 16.34304-2.93376z" fill="#F0D7D8" p-id="5606"></path><path d="M148.864 374.26176c19.92192-2.78016 35.29728-15.76448 50.7136-26.20928 61.4912-41.68704 126.16704-78.40256 186.87488-121.3184C414.3616 207.00672 447.0528 193.52064 473.088 171.8272c24.44288-20.37248 50.24256-20.59776 78.12096-19.85024 8.85248 0.23552 17.7152 0.07168 26.56768 0.09216-0.60928 7.27552-6.14912 10.3168-11.48928 13.73184-47.80544 30.55104-95.52896 61.24544-143.38048 91.73504-5.4528 3.47648-10.75712 6.5792-10.99264 13.93664-27.37664 14.36672-54.17472 29.64992-77.96736 49.65888-11.57632 0.01024-20.62848 6.49216-29.70624 12.26752-35.28192 22.45632-69.90336 45.97248-105.64096 67.65056-15.9744 9.69728-29.63456 24.33536-49.73568 26.43968V374.26176z" fill="#EFCFD0" p-id="5607"></path><path d="M728.00768 875.15648h-6.25664c-2.432-3.69664-6.28224-3.11808-9.82016-3.10784-31.1296 0.09216-62.26432 0.24064-93.38368 0.37888-4.18816-0.22528-8.38144-0.47104-12.5696-0.70144 0.14848-3.09248-0.05632-6.43072 3.27168-8.1664 46.39744-24.03328 87.35232-56.59648 131.66592-83.89632 23.13728-14.24896 46.42816-28.12416 68.5056-44.25216 18.12992-13.2352 39.46496-22.0672 56.13056-37.8624 1.19296-1.13664 3.99872-0.57344 6.06208-0.79872 1.76128 6.13888-2.39616 13.38368 3.53792 18.73408v9.39008c-4.18816 2.11456-2.91328 6.25664-3.52256 9.65632-13.03552 72.22272-60.86656 121.5232-132.5312 136.76032-3.77344 0.80384-8.6784-1.02912-11.08992 3.8656z" fill="#DC7079" p-id="5608"></path><path d="M299.12576 875.15648H292.864a95.2576 95.2576 0 0 0-0.16384-2.7136c0.01536-5.46304 1.38752-9.79456 6.62016-13.0816 30.81216-19.33824 62.04928-38.09792 91.82208-58.9568 14.5152-10.14784 33.26976-15.14496 42.69056-32.13824 35.0464 7.76192 69.90848 17.37728 106.37824 10.28096-1.38752 2.03776-2.34496 4.79232-4.26496 6.02624-26.85952 17.36704-54.26688 33.92512-80.68096 51.94752-16.768 11.42272-36.95104 18.24256-49.64864 35.38432-30.10048 0.04096-60.20096-0.01024-90.30144 0.18944-5.48352 0.0256-11.55072-1.88416-16.18944 3.06176z" fill="#E18E91" p-id="5609"></path><path d="M148.864 734.27968v-3.13344c1.09568-1.01888 2.19136-2.03264 3.28704-3.072 5.17632-0.1024 9.99424-0.32768 14.62272-3.84512a854.0672 854.0672 0 0 1 117.72928-75.15648l33.21856 44.55424c-24.73472 9.31328-42.59328 29.37344-65.22368 41.83552-28.66176 15.7696-55.84384 33.73056-82.60096 52.4288-12.32896-15.77472-12.93824-36.1728-21.03296-53.61152z" fill="#E8AAAB" p-id="5610"></path><path d="M148.864 427.47904c20.10112-2.0992 33.76128-16.7424 49.73568-26.43968 35.7376-21.67808 70.35904-45.19424 105.64096-67.65056 9.07264-5.77536 18.12992-12.25728 29.70624-12.27264-27.90912 28.3392-50.26304 60.45184-66.15552 96.9728-5.79584-0.32256-11.40736 0.34304-16.37376 3.6096-16.7936 11.06432-33.36704 22.4768-50.37056 33.21344-16.82432 10.61888-31.49824 25.23648-52.17792 28.91776l-0.00512-56.35072z" fill="#EECACA" p-id="5611"></path><path d="M148.864 483.82976c20.67968-3.68128 35.3536-18.29888 52.17792-28.91776 17.00352-10.73664 33.57696-22.15424 50.37056-33.21344 4.9664-3.26656 10.57792-3.93728 16.37376-3.6096-10.60864 25.02144-13.70112 51.82464-18.51904 78.21824-22.89152 6.49216-40.79616 21.93408-60.71296 33.77664-11.87328 7.05536-21.27872 18.7904-36.54656 19.50208-0.07168-3.46624 0.14336-7.0144-3.1488-9.40032l0.00512-56.35584z" fill="#EDC4C4" p-id="5612"></path><path d="M872.21248 298.94656c0.97792 0.05632 1.96096 0.11264 2.93888 0.1792v231.66464a64.4096 64.4096 0 0 0-2.816-0.06656l-0.60928-31.19104c-0.01024-15.65184-0.01024-31.29856-0.01024-46.94016l-0.04096-59.47904V333.65504c0.1792-11.57632 0.35328-23.14752 0.5376-34.70848z" fill="#EFCFD0" p-id="5613"></path><path d="M605.9776 871.72608c4.18816 0.2304 8.38144 0.47616 12.5696 0.70144a95.744 95.744 0 0 0-0.1024 2.72896H411.82208c-0.01536-0.99328-0.04608-1.97632-0.07168-2.95424l125.34272-0.34304 68.88448-0.13312z" fill="#E8AAAB" p-id="5614"></path><path d="M872.35072 530.71872c0.93184 0 1.85856 0.0256 2.80064 0.06656v184.704c-5.93408-5.3504-1.78176-12.5952-3.53792-18.73408 0.01536-14.60224 0.0256-29.19936 0.0512-43.79648l-0.0768-103.2704 0.76288-18.9696zM152.15104 728.07424c-1.09568 1.03424-2.19136 2.048-3.28704 3.072v-118.95808c1.01888-0.01536 2.04288-0.0256 3.072-0.0256l0.09728 0.0256-0.01536 62.6176c0.03584 17.75616 0.08704 35.51232 0.13312 53.26848z" fill="#EDC4C4" p-id="5615"></path><path d="M411.75552 872.20224c0.0256 0.97792 0.05632 1.96096 0.07168 2.95424H299.12576c4.63872-4.94592 10.70592-3.03616 16.18944-3.06176 30.10048-0.19968 60.20096-0.14848 90.29632-0.18944 2.048 0.09728 4.096 0.18944 6.144 0.29696zM618.44992 875.15648c0.0256-0.9216 0.0512-1.82272 0.1024-2.72896 31.11936-0.13824 62.25408-0.29184 93.38368-0.37888 3.53792-0.01024 7.38816-0.58368 9.82016 3.10784h-103.30624z" fill="#EAB8B8" p-id="5616"></path><path d="M151.93088 612.16256c-1.024 0-2.048 0.01024-3.072 0.0256v-72.00256c3.29216 2.38592 3.07712 5.93408 3.1488 9.40032l-0.0768 62.57664z" fill="#EFCFD0" p-id="5617"></path><path d="M728.20736 151.8336c9.8048 0.03072 19.34336 1.38752 28.16 6.0672a31.6416 31.6416 0 0 1-12.9792 13.0048c-37.20704 20.22912-71.1424 45.6192-106.97728 68.00896-12.89216 8.064-26.9824 14.8736-37.65248 26.27072-24.75008-4.31616-49.48992-8.64768-74.24-12.96896 0.1536-5.46816 4.15744-7.73632 8.0384-10.61888 36.8128-27.29472 76.75904-49.7408 115.06688-74.72128 5.72928-3.74272 13.98272-5.77536 14.67392-14.82752l65.90976-0.21504z" fill="#EDC4C4" p-id="5618"></path><path d="M662.29248 152.05376c-0.6912 9.05216-8.94464 11.0848-14.67392 14.82752-38.30272 24.98048-78.24896 47.43168-115.06688 74.72128-3.88608 2.88256-7.8848 5.1456-8.0384 10.61888-38.87104-1.41824-76.02176 7.2448-112.60416 19.24096 0.24064-7.35744 5.53984-10.46016 10.99264-13.93664 47.85152-30.4896 95.57504-61.184 143.38048-91.73504 5.34016-3.41504 10.88-6.4512 11.48928-13.73184l84.52096-0.00512z" fill="#EECACA" p-id="5619"></path><path d="M411.90912 271.4624c36.58752-12.00128 73.73312-20.66432 112.60416-19.24096 24.75008 4.31616 49.48992 8.64768 74.24 12.96896 17.67936 8.35072 35.35872 16.71168 53.02784 25.06752 10.1632 10.10176 22.49728 17.29024 34.1248 25.41056 13.952 15.56992 27.88352 31.1296 41.82016 46.6944l23.92576 40.44288c5.79584 16.57856 11.60704 33.16224 17.408 49.73568 4.38272 19.58912 6.08256 39.49568 7.13728 59.47392-0.65024 14.58688-1.28512 29.17376-1.92512 43.77088-4.58752 21.28384-10.89024 42.09152-17.93536 62.67392-43.38688 92.04736-115.1232 145.81248-216.13056 160.08192-36.46976 7.09632-71.33696-2.51904-106.37824-10.28096l-40.2688-16.56832c-14.61248-9.31328-29.23008-18.62656-43.84256-27.95008l-32-30.11584c-11.06432-14.848-22.144-29.70624-33.22368-44.55424l-19.57888-40.064c-2.23744-18.21696-12.69248-34.44736-12.86144-53.15584-3.21536-19.74272-3.00544-39.63904-2.78528-59.5456 4.81792-26.3936 7.9104-53.1968 18.51904-78.21824 15.89248-36.52096 38.2464-68.6336 66.15552-96.9728 23.79264-20.00384 50.59072-35.28704 77.96736-49.65376z m343.86944 193.62816c-1.52576-11.94496-5.3248-23.25504-9.64096-34.42688-7.31648-24.82176-22.41024-45.22496-37.30944-65.7408-10.71616-16.18944-23.41376-30.4384-39.8592-41.0624-9.13408-9.22112-19.70688-16.36864-31.47264-21.76-23.68512-16.18944-50.34496-24.23296-78.30528-28.6976-27.00288-7.63392-54.2464-7.38304-81.61792-2.45248-76.0576 11.96032-135.33696 49.39264-175.57504 115.70176-14.61248 22.19008-24.79104 46.27456-30.69952 72.17152-5.92896 27.04384-9.60512 54.21056-4.56704 81.8688 1.04448 12.68736 0.91648 25.5744 6.42048 37.49888 4.49024 15.37536 5.82144 32.0256 18.0224 44.26752 8.8576 30.61248 28.97408 53.376 51.78368 74.25024 9.06752 10.05568 19.77856 18.07872 31.11424 25.33888 14.14144 11.21792 30.14144 18.88768 47.17568 24.54528 15.80544 7.55712 32.4096 12.18048 49.8688 13.65504 24.55552 6.76352 49.24928 5.08416 74.2656 2.64192 98.62144-9.62048 191.232-94.14144 209.29536-191.88224 10.58304-35.20512 9.02656-70.528 1.1008-105.91744z" fill="#FCFBFB" p-id="5620"></path><path d="M871.65952 652.95872c-0.0256 14.59712-0.03584 29.19424-0.0512 43.79648-2.05824 0.22528-4.864-0.3328-6.06208 0.79872-16.6656 15.7952-38.00064 24.6272-56.13056 37.8624-22.07744 16.12288-45.36832 29.99808-68.5056 44.25216-44.3136 27.29984-85.26848 59.85792-131.66592 83.89632-3.32288 1.73568-3.11808 5.0688-3.27168 8.1664-22.95296 0.04096-45.91104 0.09216-68.87936 0.128 0.22016-5.0176 4.55168-6.59968 7.68512-9.14432 30.6176-24.85248 66.28864-42.04032 98.44224-64.72704 32.37888-22.86592 68.08576-40.98048 100.8896-63.32416 41.76896-28.45696 84.57728-55.18336 127.54944-81.70496z" fill="#DD7880" p-id="5621"></path><path d="M871.65952 652.95872c-42.97728 26.5216-85.78048 53.24288-127.54432 81.69984-32.80384 22.34368-68.51072 40.45824-100.8896 63.32416-32.14848 22.68672-67.81952 39.86944-98.44224 64.72704-3.13344 2.54464-7.46496 4.12672-7.68512 9.14432l-125.34272 0.34304c-2.04288-0.10752-4.096-0.19456-6.144-0.29696 12.70272-17.14688 32.88576-23.9616 49.65376-35.38432 26.41408-18.02752 53.82144-34.5856 80.68096-51.94752 1.92-1.23392 2.87744-3.98336 4.26496-6.02624 101.00736-14.26432 172.74368-68.03456 216.13056-160.08192 4.30592 0.11264 7.84896-1.34144 11.55584-3.78368 29.78304-19.68128 59.77088-39.04512 89.64096-58.59328 4.39296-2.87232 8.64768-5.85216 14.04928-6.39488l0.07168 103.2704z" fill="#E08187" p-id="5622"></path><path d="M393.56416 751.6928l40.26368 16.56832c-9.4208 16.99328-28.17536 21.9904-42.69056 32.13824-29.76768 20.85376-61.00992 39.61344-91.82208 58.9568-5.23264 3.28704-6.6048 7.61344-6.62016 13.0816-18.7136-2.0992-36.6592-6.70208-52.98688-16.47104 0.44544-2.67264 1.61792-4.82816 4.10112-6.19008 41.1136-22.77376 77.5424-52.8128 118.26176-76.16512 11.17696-6.38976 23.18848-11.46368 31.49312-21.91872z" fill="#E29397" p-id="5623"></path><path d="M317.7216 693.632c10.67008 10.04032 21.34016 20.08064 32 30.1312-1.16736 1.69472-1.98144 3.86048-3.54304 5.02784-29.83936 22.25664-61.16352 42.2144-92.92288 61.63968-18.27328 11.1872-40.32512 17.77152-51.60448 38.48704-13.78816-11.1872-24.80128-24.53504-31.74912-41.02144 26.752-18.69824 53.93408-36.6592 82.59584-52.4288 22.62528-12.46208 40.48896-32.52224 65.22368-41.83552z" fill="#E6A2A5" p-id="5624"></path><path d="M264.91392 609.00864l19.57888 40.064a854.9376 854.9376 0 0 0-117.72416 75.15648c-4.62848 3.51744-9.4464 3.74272-14.62272 3.84512l-0.13824-53.26848c25.20576-11.79648 48.83968-26.30656 71.69536-42.09152 13.11232-9.0368 25.76384-18.77504 41.21088-23.7056z" fill="#E9B2B2" p-id="5625"></path><path d="M249.2672 496.3072c-0.21504 19.90656-0.42496 39.80288 2.78528 59.5456-16.95232 3.88608-30.06464 15.03232-44.11904 24.1152-18.11968 11.70432-35.59936 24.36608-55.9104 32.21504l-0.09728-0.0256 0.0768-62.57664c15.26272-0.71168 24.67328-12.44672 36.54656-19.50208 19.92192-11.83744 37.82656-27.27936 60.71808-33.77152z" fill="#EBBEBE" p-id="5626"></path><path d="M727.7312 362.36288l-41.8048-46.69952c29.79328-22.16448 60.91264-42.33728 92.3904-61.94688 20.52096-12.78464 39.7824-27.8016 62.83776-36.1984 12.91264 14.45376 21.36064 31.10912 24.78592 50.24256-1.9712 0.58368-4.26496 0.7168-5.88288 1.82784-39.93088 27.07968-79.92832 54.03136-121.81504 78.06464-5.36064 3.08736-9.91232 7.74144-10.51136 14.70976z" fill="#E9B2B2" p-id="5627"></path><path d="M651.78624 290.25792c-17.66912-8.35584-35.34848-16.72192-53.02784-25.06752 10.6752-11.40224 24.76544-18.21184 37.65248-26.27072 35.83488-22.39488 69.77024-47.78496 106.97728-68.00896a31.6416 31.6416 0 0 0 12.9792-13.0048c22.95296 4.56704 42.35264 15.78496 59.27424 31.6672-8.3968 1.54112-15.18592 6.24128-22.21568 10.71616-47.14496 30.08512-94.40768 59.99616-141.63968 89.96864z" fill="#EBBEBE" p-id="5628"></path><path d="M727.7312 362.36288c0.59904-6.96832 5.15072-11.6224 10.51136-14.70976 41.88672-24.03328 81.88416-50.98496 121.81504-78.06464 1.61792-1.11104 3.9168-1.24416 5.88288-1.82784 5.9136 9.62048 0.77824 21.46816 6.272 31.1808l-0.53248 34.70336c-34.88256 15.96928-65.96096 38.23616-97.96096 58.98752-6.87616 4.47488-12.92288 10.62912-22.06208 10.17344a104942.9504 104942.9504 0 0 1-23.92576-40.44288z" fill="#E8AAAB" p-id="5629"></path><path d="M651.78624 290.25792c47.23712-29.97248 94.49472-59.88352 141.63968-89.97376 7.02976-4.48 13.81888-9.17504 22.21568-10.71616 9.9584 7.9872 20.08576 15.8208 25.51296 27.95008-23.06048 8.3968-42.32192 23.41376-62.83776 36.1984-31.47264 19.6096-62.59712 39.7824-92.3904 61.94688-11.648-8.1152-23.97696-15.30368-34.14016-25.40544z" fill="#EAB8B8" p-id="5630"></path><path d="M201.6512 828.91264c11.27424-20.71552 33.3312-27.29984 51.60448-38.48704 31.75936-19.42528 63.08352-39.38304 92.92288-61.63968 1.56672-1.17248 2.3808-3.33312 3.54304-5.02784l43.84256 27.93472c-8.29952 10.45504-20.31104 15.52384-31.48288 21.91872-40.71936 23.35232-77.14816 53.39136-118.26176 76.16512-2.4832 1.36192-3.65568 3.51744-4.10112 6.19008-14.75072-6.12352-27.7504-14.70976-38.0672-27.05408z" fill="#E59B9D" p-id="5631"></path><path d="M751.65696 402.80576c9.13408 0.45568 15.18592-5.69856 22.06208-10.17344 32-20.75136 63.0784-43.01824 97.96096-58.98752v59.45856c-13.93664 0.55808-22.89152 11.2384-34.304 16.94208-24.09984 12.032-42.86464 32.64-68.30592 42.496a44032.1536 44032.1536 0 0 1-17.41312-49.73568z" fill="#E6A2A5" p-id="5632"></path><path d="M769.06496 452.54144c25.44128-9.856 44.20608-30.464 68.30592-42.496 11.41248-5.69856 20.37248-16.37888 34.304-16.94208l0.04096 59.47904c-7.8336 1.42848-14.3616 5.59104-20.8384 9.9072-24.86272 16.54784-49.78688 33.024-74.6752 49.52576-1.05472-19.97312-2.75456-39.8848-7.13728-59.47392z" fill="#E59B9D" p-id="5633"></path><path d="M871.58272 549.68832c-5.4016 0.54272-9.65632 3.52256-14.04928 6.39488-29.87008 19.54816-59.8528 38.91712-89.64096 58.59328-3.70688 2.44736-7.24992 3.90144-11.55584 3.78368 7.04512-20.58752 13.34784-41.39008 17.95072-62.67392 7.3984-0.93184 13.16864-4.93056 19.49184-8.69888 26.1632-15.58016 49.29536-36.10112 77.94688-47.55968l0.60928 31.19104c-0.24064 6.3232-0.49664 12.65152-0.75264 18.9696z" fill="#E18E91" p-id="5634"></path><path d="M871.72608 499.52768c-28.65152 11.45856-51.77856 31.97952-77.94688 47.55968-6.31808 3.76832-12.08832 7.77216-19.49184 8.69888 0.62464-14.60224 1.25952-29.184 1.90976-43.77088 24.88832-16.50176 49.81248-32.97792 74.6752-49.52576 6.48192-4.31104 13.0048-8.47872 20.8384-9.9072 0.00512 15.64672 0.00512 31.29856 0.01536 46.94528z" fill="#E29397" p-id="5635"></path><path d="M152.02816 612.18304c20.31104-7.84896 37.79072-20.51072 55.9104-32.21504 14.0544-9.08288 27.16672-20.22912 44.11904-24.1152 0.16896 18.70848 10.624 34.93888 12.86144 53.15584-15.45216 4.93056-28.09856 14.66368-41.20576 23.7056-22.8608 15.78496-46.4896 30.29504-71.69536 42.09152-0.00512-20.87936 0.00512-41.74336 0.01024-62.62272z" fill="#EAB8B8" p-id="5636"></path><path d="M266.71104 540.68736c-5.0176-27.65824-1.34656-54.82496 4.58752-81.8688 3.37408-1.26976 7.30624-1.81248 10.05568-3.90656 38.03136-28.94848 79.99488-51.80928 119.82848-77.95712 35.93728-23.59296 71.66464-47.4368 108.69248-69.33504 17.18272-10.15296 32.91648-22.73792 49.31072-34.22208 27.96032 4.46464 54.62016 12.50816 78.30528 28.6976-15.9744 10.624-32.4096 20.62848-47.78496 32.03584-17.408 12.90752-39.168 19.6864-52.92544 37.67808-14.53568-6.9376-28.91264-14.20288-43.648-20.70528-10.99776-4.85376-21.22752-2.7648-26.22976 8.80128-4.60288 10.63936 1.9968 17.55648 11.20256 22.36928 12.39552 6.49216 24.71936 13.1328 37.0688 19.70688l-3.06176 9.27232c-8.86784-4.23424-17.87904-8.20224-26.56256-12.78976-8.2176-4.352-13.32736-2.47296-17.23904 5.96992-3.67104 7.91552-8.41728 15.32928-12.68736 22.95808-6.64064-6.05696-11.5968-0.33792-16.4608 2.76992-57.53856 36.75136-114.98496 73.66144-172.45184 110.52544z" fill="#EBBEBE" p-id="5637"></path><path d="M754.67264 570.99776c-18.06336 97.7408-110.67392 182.26176-209.29536 191.88224-25.01632 2.44736-49.71008 4.12672-74.2656-2.65216 0.6144-10.94656 10.21952-13.952 17.29536-18.52416 69.85216-45.14304 139.90912-89.92768 209.8432-134.94784 5.47328-3.52256 12.60032-5.65248 14.12608-13.4656 13.1328 8.1408 20.92032 3.41504 25.14432-10.3168 0.57344-1.87392 2.05312-3.4816 3.10784-5.21216 4.67968-2.2528 9.3696-4.5056 14.04416-6.76352z" fill="#E18E91" p-id="5638"></path><path d="M342.95296 696.69888c-22.8096-20.87424-42.92608-43.63776-51.7632-74.2656 41.07264-25.856 82.1504-51.69152 123.17184-77.60896 4.10624-2.59072 6.76352-6.36928 6.94784-11.47904 21.46816 10.368 43.008 20.59776 64.384 31.16032 10.23488 5.05344 19.00544 2.95424 24.13056-6.52288 5.57056-10.2912 1.94048-19.03104-8.74496-24.59648-9.22112-4.80256-18.2528-9.9328-27.37664-14.91968 2.37568-2.16576 4.74624-4.34176 7.1168-6.52288 2.26304 1.16224 4.74624 2.02752 6.76864 3.51744 11.47904 8.41216 18.816 5.9904 23.94624-7.51104 3.2256-8.46336 8.64768-16.09728 13.08672-24.09472 2.05824 2.10432 4.14208 4.20864 6.20032 6.31808-3.16928 7.15264-0.59392 10.98752 6.38464 14.32576 14.91456 7.12704 29.34784 15.24224 43.97056 22.9632-6.72256 4.87936-13.37344 9.88672-20.1984 14.62272-18.7648 12.98944-39.31136 23.23456-56.83712 38.24128-5.888 5.02784-7.30624 9.21088-4.62848 15.70304-36.31616 0.1536-72.64256 0.3072-108.9536 0.41984-7.3216 0.0256-15.20128-0.65024-19.3536 6.92224-3.00032 5.46304-6.78912 7.89504-12.8256 9.60512-10.29632 2.91328-9.63072 12.24192-8.97536 20.66944 0.78336 9.93792 8.704 6.94272 14.28992 7.15776 16.0512 0.64 32.10752 0.77824 48.17408 1.11104-1.49504 13.19424-13.87008 15.58016-22.1184 21.8624-15.18592 11.5456-33.59232 18.51904-46.7968 32.9216z" fill="#E8AAAB" p-id="5639"></path><path d="M421.24288 746.58304c-17.03424-5.65248-33.03424-13.32736-47.17568-24.54528 22.95296-19.42528 49.98656-32.91648 73.94304-50.77504 12.31872-9.18528 29.89056-12.31872 35.86048-29.32736 15.07328-0.2816 30.2848-1.87392 45.19936-0.4352 12.61568 1.22368 15.96416-3.15392 14.06464-14.28992-0.6912-4.04992-1.92512-8.00256-2.91328-12.00128 0.97792-2.304 1.29536-5.632 3.0464-6.76352 29.06624-19.01568 56.81152-40.15104 87.94624-55.92064a241.62304 241.62304 0 0 1 43.82208 21.98528c-4.15744 3.10784-8.13056 6.52288-12.48256 9.28256-70.22592 44.60032-140.69248 88.80128-210.56 133.94432-11.61728 7.51104-27.2128 12.16512-30.75072 28.84608z" fill="#E59B9D" p-id="5640"></path><path d="M708.82816 364.92288c14.8992 20.51584 29.99296 40.92416 37.30944 65.7408a29.3376 29.3376 0 0 0-13.44 2.8672c-32.2304 15.00672-58.2656 39.8336-89.71264 56.07424-6.1952 3.20512-9.60512 9.44128-9.21088 16.99328l-84.15232-41.97888c0.47104-2.67264 1.74592-4.6848 4.12672-6.21056 40.09984-25.76896 79.90784-51.98336 120.38144-77.14304 10.73664-6.66624 20.6848-16.16896 34.69824-16.34304z" fill="#E8AAAB" p-id="5641"></path><path d="M559.19104 273.39776c-16.39424 11.48416-32.12288 24.06912-49.31072 34.22208-37.02784 21.89824-72.76032 45.74208-108.69248 69.33504-39.8336 26.14784-81.80224 49.00864-119.82848 77.95712-2.75456 2.09408-6.6816 2.6368-10.05568 3.90656 5.90336-25.89696 16.08192-49.98144 30.70976-72.16128 7.26016 0.62976 12.8768-2.92352 18.51904-6.86592 12.30336-8.61184 24.25856-17.91488 37.30944-25.23136 37.6064-21.08416 73.10336-45.40928 108.99968-69.12512 5.1712-3.40992 10.17856-7.42912 10.73664-14.48448 27.3664-4.93568 54.6048-5.18656 81.6128 2.44736z" fill="#EDC4C4" p-id="5642"></path><path d="M421.24288 746.58304c3.5328-16.68608 19.12832-21.33504 30.7456-28.84096 69.86752-45.14304 140.33408-89.344 210.56-133.94432 4.35712-2.75968 8.33024-6.17472 12.48256-9.28256a173.89056 173.89056 0 0 1 37.34528 18.77504c-1.52576 7.808-8.64768 9.93792-14.12608 13.4656-69.93408 45.02016-139.99616 89.8048-209.8432 134.94784-7.07584 4.57728-16.68096 7.5776-17.29536 18.52416-17.4592-1.46432-34.06336-6.08768-49.8688-13.6448z" fill="#E29397" p-id="5643"></path><path d="M708.82816 364.92288c-14.01344 0.17408-23.96672 9.6768-34.69824 16.34304-40.46848 25.15968-80.2816 51.37408-120.38144 77.14304-2.3808 1.52576-3.65568 3.5328-4.12672 6.21056-12.16512 4.18304-10.368 18.63168-18.80576 25.55392-2.05824-2.10944-4.14208-4.21376-6.20032-6.31808 3.08224-12.15488 10.17344-22.45632 15.5392-33.55136 9.40032-19.45088 9.57952-19.33824-8.94464-28.87168-6.40512-3.30752-12.73344-6.784-19.09248-10.17856l3.06176-9.26208c12.8 6.33856 25.45152 13.02528 38.47168 18.88256 9.86112 4.44928 19.95776 6.3232 27.36128-4.7872 7.26016-10.92608 0.27136-18.21184-6.68672-25.45664 0.45568-5.6832 3.80416-9.344 8.26368-12.4416 27.98592-19.39968 55.6032-39.37792 86.37952-54.32832 16.44544 10.624 29.14816 24.87296 39.8592 41.0624z" fill="#E9B2B2" p-id="5644"></path><path d="M480.8192 511.94368c-2.37056 2.18112-4.74112 4.35712-7.11168 6.52288-16.42496-7.82848-32.86016-15.6672-49.30048-23.4752-16.27136-7.7312-21.87264-5.78048-31.11936 10.73152-7.7056 1.42848-14.84288 4.0704-21.21728 8.85248-31.45728 23.552-66.71872 41.21088-98.92352 63.616-5.504-11.92448-5.376-24.81664-6.4256-37.49888 57.45664-36.864 114.89792-73.77408 172.44672-110.5152 4.864-3.10784 9.82016-8.82688 16.4608-2.76992-7.2704 15.42144-14.09536 31.06816-21.9904 46.16704-4.5568 8.73984-2.02752 12.79488 6.13376 16.73216 13.9264 6.70208 27.38688 14.36672 41.04704 21.63712z" fill="#EAB8B8" p-id="5645"></path><path d="M273.152 578.18624c32.2048-22.40512 67.47136-40.064 98.92352-63.616 6.36928-4.78208 13.51168-7.424 21.21728-8.85248 0.32256 6.15936 1.01376 12.22656 7.04512 15.73888 6.9376 4.06528 13.9776 7.936 20.97664 11.88352-0.18432 5.10976-2.84672 8.88832-6.94784 11.47904-41.02144 25.92256-82.09408 51.75296-123.17184 77.60896-12.22144-12.21632-13.55264-28.86656-18.04288-44.24192z" fill="#E9B2B2" p-id="5646"></path><path d="M754.67264 570.99776l-14.03904 6.76352c4.07552-9.21088 3.46624-15.21152-7.51616-20.32128-23.35232-10.87488-45.79328-23.7056-68.608-35.73248 23.77216-22.92736 53.5552-37.10976 80.66048-55.16288 2.67264-1.78688 7.02976-1.03424 10.60864-1.4592 7.92576 35.39456 9.48224 70.71744-1.10592 105.91232z" fill="#E59B9D" p-id="5647"></path><path d="M483.87584 641.94048c-5.96992 17.00352-23.54176 20.14208-35.86048 29.32736-23.9616 17.85856-50.99008 31.34976-73.94304 50.77504-11.33568-7.26016-22.04672-15.2832-31.11424-25.33888 13.19936-14.40256 31.61088-21.376 46.79168-32.92672 8.24832-6.28224 20.62336-8.66304 22.1184-21.8624 23.99744-1.41312 48-1.60256 72.00768 0.0256z" fill="#E6A2A5" p-id="5648"></path><path d="M477.568 270.94528c-0.55296 7.05536-5.56544 11.07968-10.73664 14.48448-35.89632 23.71584-71.39328 48.04096-108.99968 69.12512-13.05088 7.31648-25.00608 16.62464-37.30944 25.23136-5.64736 3.9424-11.25888 7.49568-18.51904 6.86592 40.23296-66.31424 99.5072-103.74656 175.5648-115.70688z" fill="#EECACA" p-id="5649"></path><path d="M755.77856 465.09056c-3.57888 0.42496-7.936-0.32256-10.60864 1.4592-27.10528 18.05312-56.88832 32.24064-80.64512 55.16288-10.99264-3.52768-20.98176-9.1136-30.75072-15.11424-0.39424-7.55712 3.01568-13.78816 9.21088-16.99328 31.45216-16.24064 57.48736-41.06752 89.71264-56.07424a29.3376 29.3376 0 0 1 13.44-2.8672c4.31616 11.17184 8.1152 22.4768 9.64096 34.42688z" fill="#E6A2A5" p-id="5650"></path><path d="M668.96896 323.86048c-30.77632 14.9504-58.3936 34.92864-86.37952 54.32832-4.45952 3.09248-7.808 6.7584-8.26368 12.43136a209.85856 209.85856 0 0 1-37.53984-18.80576c13.75744-17.99168 35.51744-24.77056 52.92544-37.67808 15.37536-11.40736 31.81056-21.41184 47.78496-32.03584 11.77088 5.39136 22.33856 12.53888 31.47264 21.76z" fill="#EAB8B8" p-id="5651"></path><path d="M480.8192 511.94368c-13.66016-7.26528-27.12064-14.93504-41.04704-21.65248-8.16128-3.93728-10.69056-7.99232-6.13376-16.73216 7.89504-15.09376 14.72-30.7456 21.9904-46.16704 4.27008-7.6288 9.01632-15.04256 12.68736-22.95808 3.9168-8.43776 9.02144-10.3168 17.23904-5.96992 8.68352 4.58752 17.69472 8.5504 26.56256 12.78976 6.35904 3.38944 12.69248 6.86592 19.09248 10.17344 18.52416 9.53344 18.34496 9.4208 8.94464 28.87168-5.36576 11.09504-12.46208 21.4016-15.5392 33.55136-4.43392 8.00256-9.86112 15.63136-13.08672 24.09472-5.13024 13.50144-12.4672 15.91808-23.94624 7.51104-2.01728-1.48992-4.49536-2.3552-6.76352-3.51232zM536.78592 371.8144a209.85856 209.85856 0 0 0 37.53984 18.80576c6.95296 7.25504 13.94688 14.5408 6.68672 25.46688-7.3984 11.1104-17.50016 9.23648-27.36128 4.7872-13.02016-5.85728-25.67168-12.544-38.47168-18.88256-12.34944-6.5792-24.67328-13.22496-37.0688-19.712-9.21088-4.8128-15.81056-11.73504-11.20256-22.36928 5.00224-11.56608 15.232-13.65504 26.22976-8.80128 14.73024 6.5024 29.11232 13.76768 43.648 20.70528zM633.77408 506.5984c9.76896 6.00064 19.75296 11.58656 30.75072 15.11424 22.79936 12.02688 45.24544 24.85248 68.59264 35.73248 10.9824 5.10976 11.59168 11.1104 7.51616 20.32128-1.05472 1.73056-2.5344 3.33312-3.10784 5.21216-4.224 13.73184-12.01152 18.45248-25.14432 10.3168a173.89056 173.89056 0 0 0-37.34528-18.77504 241.78688 241.78688 0 0 0-43.82208-21.98528c-15.86176-9.984-32.65024-18.1248-50.03776-25.06752-14.6176-7.72096-29.056-15.83616-43.97056-22.9632-6.97856-3.33824-9.55392-7.17312-6.38464-14.32576 8.43264-6.92224 6.64064-21.36576 18.80576-25.55392l84.1472 41.97376zM483.87584 641.94048c-24.00256-1.62816-48.01024-1.43872-72.00768-0.0256-16.06656-0.32768-32.12288-0.47104-48.17408-1.11104-5.58592-0.21504-13.50656 2.78016-14.28992-7.15776-0.65536-8.42752-1.32096-17.75616 8.97536-20.66944 6.03648-1.71008 9.82528-4.14208 12.8256-9.60512 4.15744-7.57248 12.03712-6.89664 19.3536-6.92224 36.31616-0.11264 72.64256-0.26624 108.9536-0.41984 7.08608 0.6656 16.3072-1.21856 19.92704 5.6064 4.82304 9.09312 13.09696 10.32192 20.79232 13.57824 0.98816 3.99872 2.2272 7.95136 2.91328 12.00128 1.89952 11.136-1.44896 15.5136-14.06464 14.28992-14.91968-1.43872-30.1312 0.1536-45.20448 0.4352z" fill="#FCFBFB" p-id="5652"></path><path d="M540.22656 615.21408c-7.69536-3.26144-15.96416-4.48512-20.79232-13.57824-3.61984-6.82496-12.84096-4.9408-19.92704-5.6064-2.67264-6.49728-1.25952-10.6752 4.62848-15.70304 17.52576-15.00672 38.07232-25.25184 56.83712-38.24128 6.82496-4.74112 13.47584-9.74336 20.1984-14.62272 17.38752 6.94272 34.18112 15.08352 50.03776 25.06752-31.13472 15.7696-58.88 36.90496-87.94624 55.92064-1.7408 1.13664-2.05824 4.45952-3.03616 6.76352z" fill="#E6A2A5" p-id="5653"></path><path d="M421.30944 533.34528c-6.99392-3.94752-14.03392-7.81824-20.97664-11.88352-6.03136-3.51744-6.72256-9.58464-7.04512-15.73888 9.24672-16.51712 14.848-18.46272 31.11936-10.73152 16.44032 7.808 32.87552 15.65184 49.30048 23.4752 9.1136 4.98688 18.1504 10.11712 27.37152 14.91968 10.68544 5.56544 14.31552 14.30528 8.74496 24.59648-5.12512 9.48224-13.89568 11.58144-24.13056 6.52288-21.37088-10.56256-42.91584-20.79232-64.384-31.16032z" fill="#FCFBFB" p-id="5654"></path></svg>